<svg width="49" height="18" viewBox="0 0 49 18" fill="none" xmlns="http://www.w3.org/2000/svg">
<rect x="0.5" y="0.5" width="48" height="17" rx="3.5" fill="#5C415D" stroke="#FFFC31"/>
<line x1="31.5" x2="31.5" y2="18" stroke="#F6F7EB"/>
<path d="M35 7L40 12L45 7H35Z" fill="#F6F7EB"/>
<path d="M11.3285 14.1705C10.5402 14.1705 9.86013 13.9964 9.2884 13.6484C8.72021 13.2969 8.28165 12.8068 7.9727 12.1783C7.6673 11.5462 7.5146 10.8111 7.5146 9.97301C7.5146 9.13494 7.6673 8.39631 7.9727 7.7571C8.28165 7.11435 8.71134 6.61364 9.26176 6.25497C9.81574 5.89276 10.462 5.71165 11.2007 5.71165C11.6268 5.71165 12.0476 5.78267 12.4631 5.92472C12.8786 6.06676 13.2568 6.29759 13.5977 6.61719C13.9386 6.93324 14.2103 7.35227 14.4127 7.87429C14.6151 8.39631 14.7163 9.03906 14.7163 9.80256V10.3352H8.40949V9.24858H13.4379C13.4379 8.78693 13.3456 8.375 13.1609 8.01278C12.9798 7.65057 12.7206 7.3647 12.3832 7.15518C12.0494 6.94567 11.6552 6.84091 11.2007 6.84091C10.7 6.84091 10.2667 6.9652 9.90097 7.21378C9.53875 7.45881 9.25999 7.77841 9.06468 8.17258C8.86936 8.56676 8.77171 8.98935 8.77171 9.44034V10.1648C8.77171 10.7827 8.87824 11.3065 9.09131 11.7362C9.30793 12.1623 9.608 12.4872 9.99152 12.7109C10.375 12.9311 10.8207 13.0412 11.3285 13.0412C11.6588 13.0412 11.9571 12.995 12.2234 12.9027C12.4933 12.8068 12.7259 12.6648 12.9212 12.4766C13.1165 12.2848 13.2674 12.0469 13.374 11.7628L14.5885 12.1037C14.4606 12.5156 14.2458 12.8778 13.9439 13.1903C13.6421 13.4993 13.2692 13.7408 12.8253 13.9148C12.3814 14.0852 11.8825 14.1705 11.3285 14.1705ZM17.8857 9.07812V14H16.6286V5.81818H17.8431V7.09659H17.9496C18.1414 6.68111 18.4326 6.3473 18.8232 6.09517C19.2138 5.83949 19.7181 5.71165 20.336 5.71165C20.89 5.71165 21.3747 5.82528 21.7902 6.05256C22.2057 6.27628 22.5288 6.61719 22.7596 7.07528C22.9905 7.52983 23.1059 8.10511 23.1059 8.80114V14H21.8488V8.88636C21.8488 8.24361 21.6819 7.7429 21.3481 7.38423C21.0142 7.02202 20.5562 6.84091 19.9738 6.84091C19.5725 6.84091 19.2138 6.92791 18.8978 7.10192C18.5853 7.27592 18.3385 7.52983 18.1574 7.86364C17.9763 8.19744 17.8857 8.60227 17.8857 9.07812Z" fill="#F6F7EB"/>
</svg>
