<svg width="64" height="61" viewBox="0 0 64 61" fill="none" xmlns="http://www.w3.org/2000/svg">
<path d="M25.3333 45.2964L9.5 30.1976L13.965 25.9095L25.3333 36.7505L49.3683 13.8305L53.8333 18.1186M31.6667 0C27.5081 0 23.3903 0.781089 19.5484 2.29866C15.7064 3.81623 12.2155 6.04057 9.27495 8.84467C3.3363 14.5078 0 22.1887 0 30.1976C0 38.2065 3.3363 45.8874 9.27495 51.5505C12.2155 54.3546 15.7064 56.579 19.5484 58.0965C23.3903 59.6141 27.5081 60.3952 31.6667 60.3952C40.0652 60.3952 48.1197 57.2137 54.0584 51.5505C59.997 45.8874 63.3333 38.2065 63.3333 30.1976C63.3333 26.232 62.5143 22.3052 60.9229 18.6415C59.3315 14.9777 56.9989 11.6488 54.0584 8.84467C51.1179 6.04057 47.627 3.81623 43.785 2.29866C39.943 0.781089 35.8252 0 31.6667 0Z" fill="#2BAA3F"/>
</svg>
